<svg width="34" height="34" viewBox="0 0 34 34" fill="none" xmlns="http://www.w3.org/2000/svg">
<g clip-path="url(#clip0_47_173)">
<path d="M17.3775 8.0979C16.5506 8.0979 15.8767 9.43271 15.8767 11.0871C15.8767 12.7347 16.5506 14.0757 17.3775 14.0757C18.1989 14.0757 18.8714 12.7347 18.8714 11.0871C18.8707 9.43271 18.1982 8.0979 17.3775 8.0979Z" fill="white"/>
<path d="M12.3896 3.97248C15.4034 3.97248 16.624 4.20028 16.624 6.45647H18.1248C18.1248 2.47787 14.8098 2.47787 12.3903 2.47787C9.38337 2.47787 8.15596 2.25619 8.15596 0H6.66064C6.66064 3.97248 9.97632 3.97248 12.3896 3.97248Z" fill="white"/>
<path d="M20.1416 6.45654C20.2837 6.88629 20.3667 7.35073 20.3667 7.8376V14.3301C20.3667 16.1531 19.3045 17.6688 17.9133 17.9932C17.916 18.0143 17.9275 18.0333 17.9275 18.0612V23.2767C17.9275 23.5793 17.6807 23.8275 17.372 23.8275C17.0694 23.8275 16.8219 23.5793 16.8219 23.2767V18.0612C16.8219 18.0333 16.8348 18.015 16.8368 17.9932C15.4455 17.6688 14.3827 16.1531 14.3827 14.3301V7.8376C14.3827 7.35141 14.465 6.88629 14.6078 6.45654C10.489 7.5418 7.4093 11.277 7.4093 15.7261V24.3728C7.40862 29.6679 11.7409 34.0001 17.0347 34.0001H17.714C23.0085 34.0001 27.3401 29.6679 27.3401 24.3728V15.7261C27.3401 11.277 24.2597 7.5418 20.1416 6.45654Z" fill="white"/>
</g>
<defs>
<clipPath id="clip0_47_173">
<rect width="34" height="34" fill="white"/>
</clipPath>
</defs>
</svg>
