<svg width="34" height="34" viewBox="0 0 34 34" fill="none" xmlns="http://www.w3.org/2000/svg">
<g clip-path="url(#clip0_29_107)">
<path d="M17.3775 8.09796C16.5506 8.09796 15.8767 9.43277 15.8767 11.0872C15.8767 12.7348 16.5506 14.0757 17.3775 14.0757C18.1989 14.0757 18.8714 12.7348 18.8714 11.0872C18.8707 9.43277 18.1982 8.09796 17.3775 8.09796Z" fill="#0C76D8"/>
<path d="M12.3896 3.97248C15.4034 3.97248 16.624 4.20028 16.624 6.45647H18.1248C18.1248 2.47787 14.8098 2.47787 12.3903 2.47787C9.38337 2.47787 8.15596 2.25619 8.15596 0H6.66064C6.66064 3.97248 9.97632 3.97248 12.3896 3.97248Z" fill="#0C76D8"/>
<path d="M20.1416 6.45647C20.2837 6.88623 20.3667 7.35066 20.3667 7.83753V14.33C20.3667 16.1531 19.3045 17.6688 17.9133 17.9931C17.916 18.0142 17.9275 18.0332 17.9275 18.0611V23.2766C17.9275 23.5792 17.6807 23.8274 17.372 23.8274C17.0694 23.8274 16.8219 23.5792 16.8219 23.2766V18.0611C16.8219 18.0332 16.8348 18.0149 16.8368 17.9931C15.4455 17.6688 14.3827 16.1531 14.3827 14.33V7.83753C14.3827 7.35134 14.465 6.88623 14.6078 6.45647C10.489 7.54173 7.4093 11.2769 7.4093 15.726V24.3728C7.40862 29.6678 11.7409 34 17.0347 34H17.714C23.0085 34 27.3401 29.6678 27.3401 24.3728V15.726C27.3401 11.2769 24.2597 7.54173 20.1416 6.45647Z" fill="#0C76D8"/>
</g>
<defs>
<clipPath id="clip0_29_107">
<rect width="34" height="34" fill="white"/>
</clipPath>
</defs>
</svg>
